<svg xmlns="http://www.w3.org/2000/svg" width="633" height="305" viewBox="0 0 633 305">
    <g fill="none" fill-rule="evenodd">
        <g fill="#000" fill-rule="nonzero">
            <path d="M37.13 304.63a1.154 1.154 0 0 1 0-2.308h136.465a1.154 1.154 0 0 1 0 2.307H37.13zM475.753 304.63a1.154 1.154 0 0 1 0-2.308h39.225a1.154 1.154 0 0 1 0 2.307h-39.225zM2.153 294.823a1.154 1.154 0 1 1 0-2.307h629.6a1.154 1.154 0 1 1 0 2.307H2.154z"/>
        </g>
        <path fill="#41C1C6" d="M615.707 294.112c28.41-110.956 2.796-191.28-76.842-241.633-153.224-96.877-193.892 80.35-422.29 30.284C-4.023 69.822-21.57 226.84 42.567 294.112c0 0 573.14-.66 573.14 0z" opacity=".066"/>
        <g fill="#B3B3B3" fill-rule="nonzero" opacity=".404">
            <path d="M549.195 238.459V190.36H440.227v48.098h108.968zm0 1.4H440.227v45.003h108.968v-45.003zm0-50.898v-52.767H440.227v52.767h108.968zm0-54.167V81.092H440.227v53.702h108.968zm0-55.102V35.238a4.9 4.9 0 0 0-4.897-4.904h-99.174a4.9 4.9 0 0 0-4.897 4.904v44.454h108.968zm-110.368 205.17V35.238a6.3 6.3 0 0 1 6.297-6.304h99.174a6.3 6.3 0 0 1 6.297 6.304v249.624h3.936a2.07 2.07 0 0 1 2.07 2.072v.059a2.07 2.07 0 0 1-2.07 2.072h-119.64a2.07 2.07 0 0 1-2.069-2.072v-.06a2.07 2.07 0 0 1 2.07-2.071h3.935z"/>
            <path d="M499.13 70.106a3.497 3.497 0 0 1 1.403 2.806v4.669a3.5 3.5 0 0 1-3.498 3.502h-40.108a3.5 3.5 0 0 1-3.498-3.502v-4.67c0-1.147.551-2.166 1.404-2.805a3.498 3.498 0 0 1-1.404-2.805v-4.67a3.5 3.5 0 0 1 3.498-3.5h40.108a3.5 3.5 0 0 1 3.498 3.5v4.67a3.497 3.497 0 0 1-1.403 2.805zm-2.095.704h-40.108a2.1 2.1 0 0 0-2.098 2.102v4.669a2.1 2.1 0 0 0 2.098 2.102h40.108a2.1 2.1 0 0 0 2.098-2.102v-4.67a2.1 2.1 0 0 0-2.098-2.101zm0-10.28h-40.108a2.1 2.1 0 0 0-2.098 2.102V67.3a2.1 2.1 0 0 0 2.098 2.102h40.108a2.1 2.1 0 0 0 2.098-2.102v-4.67a2.1 2.1 0 0 0-2.098-2.1zM493.851 114.88a3.498 3.498 0 0 1-1.422-2.819v-4.67a3.5 3.5 0 0 1 3.498-3.5h40.108a3.5 3.5 0 0 1 3.498 3.5v4.67c0 1.156-.559 2.181-1.421 2.819a3.498 3.498 0 0 1 1.421 2.819v4.669c0 1.156-.558 2.18-1.42 2.818a3.498 3.498 0 0 1 1.42 2.818v4.67a3.5 3.5 0 0 1-3.498 3.501h-40.108a3.5 3.5 0 0 1-3.498-3.501v-4.67c0-1.155.559-2.18 1.421-2.818a3.498 3.498 0 0 1-1.421-2.818v-4.67c0-1.155.56-2.18 1.422-2.818zm42.184 11.023h-40.108a2.1 2.1 0 0 0-2.098 2.101v4.67a2.1 2.1 0 0 0 2.098 2.101h40.108a2.1 2.1 0 0 0 2.098-2.101v-4.67a2.1 2.1 0 0 0-2.098-2.101zm0-10.306h-40.108a2.1 2.1 0 0 0-2.098 2.102v4.669a2.1 2.1 0 0 0 2.098 2.102h40.108a2.1 2.1 0 0 0 2.098-2.102v-4.67a2.1 2.1 0 0 0-2.098-2.101zm0-10.307h-40.108a2.1 2.1 0 0 0-2.098 2.102v4.669a2.1 2.1 0 0 0 2.098 2.102h40.108a2.1 2.1 0 0 0 2.098-2.102v-4.67a2.1 2.1 0 0 0-2.098-2.1z"/>
        </g>
        <g fill="#B3B3B3" fill-rule="nonzero" opacity=".404">
            <path d="M20.892 260.038h20.776v-12.111H1.145a.7.7 0 0 1 0-1.4h41.923v13.511h19.747a.7.7 0 0 1 0 1.4H22.292v12.812a.7.7 0 0 1-1.4 0v-12.812h-9.854a.7.7 0 1 1 0-1.4h9.854zM351.444 33.062h-9.8a.7.7 0 1 1 0-1.4h30.472V19.61H331.8a.7.7 0 1 1 0-1.4h19.644V6.003a.7.7 0 1 1 1.4 0v12.206h39.616V8.628a.7.7 0 1 1 1.4 0v10.28a.7.7 0 0 1-.7.7h-19.316v12.054h40.316a.7.7 0 0 1 0 1.4h-61.316v12.753a.7.7 0 1 1-1.4 0V33.062z"/>
        </g>
        <g fill="#B3B3B3" fill-rule="nonzero" opacity=".404">
            <path d="M267.875 54.476H67.965v24.75h199.91v-24.75zm0-1.4V7.22a4.9 4.9 0 0 0-4.897-4.903H72.861a4.9 4.9 0 0 0-4.896 4.903v45.856h199.91zm1.4 26.648a.7.7 0 0 1 0 .403v204.735h3.237a2.07 2.07 0 0 1 2.069 2.072v.059a2.07 2.07 0 0 1-2.07 2.072H63.33a2.07 2.07 0 0 1-2.07-2.072v-.06a2.07 2.07 0 0 1 2.07-2.071h3.236V7.22A6.3 6.3 0 0 1 72.86.917h190.117a6.3 6.3 0 0 1 6.297 6.303v72.504zm-1.4.901H67.965v204.237h199.91V80.625z"/>
            <path d="M176.489 100.883l10.589-4.8 2.929-1.328.976-.443a.701.701 0 0 1 .166-.051c.485-1.457 1.879-3.44 3.208-4.902 2.155-2.37 3.109-4.193 3.109-6.231a5.817 5.817 0 0 0-5.813-5.821 5.817 5.817 0 0 0-5.813 5.82.7.7 0 0 1-1.4 0c0-3.987 3.229-7.22 7.213-7.22s7.213 3.233 7.213 7.22c0 2.457-1.107 4.57-3.473 7.173-1.244 1.369-2.596 3.308-2.951 4.515a.7.7 0 0 1-.57.495.697.697 0 0 1-.311.277l-.976.443-2.93 1.328-11.251 5.1-.002.198c0 9.903 5.36 15.27 15.25 15.27 9.692 0 15.033-5.153 15.244-14.679l-11.444-5.216a.7.7 0 0 1 .58-1.274l10.845 4.943a17.927 17.927 0 0 0-.783-4.391.7.7 0 0 1 .886-.873l28.486 9.28a.7.7 0 0 1 .483.666v24.986a.7.7 0 0 1-.875.678l-17.468-4.499v49.502a.7.7 0 0 1-.7.7h-51.438a.7.7 0 0 1-.7-.7v-49.262l-16.537 4.259a.7.7 0 0 1-.875-.678v-24.986a.7.7 0 0 1 .484-.666l28.477-9.247a.7.7 0 0 1 .885.873 17.852 17.852 0 0 0-.713 3.54zm-1.464.835c.057-1.193.223-2.37.493-3.518l-26.762 8.69v23.575l16.537-4.259a.7.7 0 0 1 .875.678v49.465h50.038v-49.705a.7.7 0 0 1 .875-.678l17.468 4.499V106.89L207.78 98.17c.346 1.458.522 2.96.522 4.487 0 10.676-5.985 16.67-16.65 16.67-10.663 0-16.65-5.995-16.65-16.67 0-.118.002-.236.004-.353a.699.699 0 0 1 .019-.585z"/>
            <path d="M149.86 235.129h-10.622a.697.697 0 0 1-.57 0H122.27a.7.7 0 0 1-.696-.774 1250.041 1250.041 0 0 0 .31-2.976 4154.632 4154.632 0 0 0 3.309-33.066c.207-2.16.408-4.276.602-6.344 1.687-18.006 2.757-31.288 2.975-37.845.234-7.034-.36-13.406-1.493-18.962a55.447 55.447 0 0 0-1.057-4.341 32.569 32.569 0 0 0-.345-1.12c-.062-.187-.105-.31-.108-.323L114.022 103.3a.7.7 0 0 1 .444-.96l20.364-5.876a.7.7 0 0 1 .863.88 20.713 20.713 0 0 0-.884 4.804 213276.67 213276.67 0 0 0 16.147-7.32l1.136-.515a.701.701 0 0 1 .166-.052c.485-1.456 1.879-3.44 3.208-4.901 2.155-2.37 3.109-4.193 3.109-6.231a5.817 5.817 0 0 0-5.813-5.821 5.817 5.817 0 0 0-5.813 5.82.7.7 0 1 1-1.4 0c0-3.987 3.229-7.22 7.213-7.22s7.213 3.233 7.213 7.22c0 2.457-1.107 4.57-3.473 7.173-1.244 1.369-2.596 3.308-2.951 4.515a.7.7 0 0 1-.57.495.697.697 0 0 1-.311.277l-1.136.515a107341.734 107341.734 0 0 1-16.767 7.601c.086 7.563 4.922 15.649 12.863 17.817l-.37 1.35c-8.696-2.374-13.894-11.175-13.894-19.372 0-1.818.219-3.61.648-5.343l-18.384 5.306 11.432 25.388c.027.074.076.212.142.413.109.33.23.72.36 1.169.37 1.275.74 2.763 1.084 4.452 1.155 5.658 1.759 12.14 1.521 19.287-.22 6.596-1.29 19.893-2.98 37.93-.194 2.069-.395 4.186-.602 6.346a4156.01 4156.01 0 0 1-3.54 35.281h15.259l4.38-61.393a.7.7 0 1 1 1.396.1l-4.373 61.294h9.74l.23-50.608a.7.7 0 1 1 1.4.006l-.23 50.602h41.162l-.164-1.538c-.156-1.475-.382-3.633-.67-6.415-.51-4.896-1.204-11.612-2.036-19.695l-.02-.19a67240.236 67240.236 0 0 1-2.689-26.155l-.186-1.817-.066-.643 1.393-.142a18794.174 18794.174 0 0 0 .918 8.941c.688 6.707 1.378 13.413 2.023 19.672l.02.19c.832 8.083 1.526 14.8 2.035 19.695.289 2.78.514 4.937.67 6.412a487.667 487.667 0 0 0 .237 2.184l.007.058c.01.046.015.094.015.144.022.005.022.005-.336.6l-.364.018v.082H150.43a.697.697 0 0 1-.57 0zm9.368-137.094a.7.7 0 1 1 .562-1.282l6.493 2.843a.7.7 0 1 1-.561 1.283l-6.494-2.844zM141.24 42.741a3.5 3.5 0 0 1 3.497 3.502v4.669a3.5 3.5 0 0 1-3.498 3.502h-40.108a3.5 3.5 0 0 1-3.498-3.502v-4.67a3.5 3.5 0 0 1 3.498-3.501h40.108zm0 1.4h-40.11a2.1 2.1 0 0 0-2.097 2.102v4.669a2.1 2.1 0 0 0 2.098 2.102h40.108a2.1 2.1 0 0 0 2.098-2.102v-4.67a2.1 2.1 0 0 0-2.098-2.101zm0-21.977a3.5 3.5 0 0 1 3.497 3.501v4.67a3.5 3.5 0 0 1-3.498 3.501h-40.108a3.5 3.5 0 0 1-3.498-3.501v-4.67a3.5 3.5 0 0 1 3.498-3.501h40.108zm0 1.4h-40.11a2.1 2.1 0 0 0-2.097 2.101v4.67a2.1 2.1 0 0 0 2.098 2.101h40.108a2.1 2.1 0 0 0 2.098-2.101v-4.67a2.1 2.1 0 0 0-2.098-2.101z"/>
            <path d="M141.24 32.452a3.5 3.5 0 0 1 3.497 3.502v4.67a3.5 3.5 0 0 1-3.498 3.501h-40.108a3.5 3.5 0 0 1-3.498-3.502v-4.669a3.5 3.5 0 0 1 3.498-3.502h40.108zm0 1.4h-40.11a2.1 2.1 0 0 0-2.097 2.102v4.67a2.1 2.1 0 0 0 2.098 2.101h40.108a2.1 2.1 0 0 0 2.098-2.102v-4.669a2.1 2.1 0 0 0-2.098-2.102zM249.911 43.631a3.497 3.497 0 0 1 1.41 2.81v4.669a3.5 3.5 0 0 1-3.499 3.502h-66.691a3.5 3.5 0 0 1-3.498-3.502v-4.67c0-1.15.554-2.17 1.41-2.809a3.498 3.498 0 0 1-1.41-2.81v-4.668a3.5 3.5 0 0 1 3.498-3.502h66.691a3.5 3.5 0 0 1 3.499 3.502v4.669c0 1.15-.554 2.17-1.41 2.81zm-2.089.708h-66.691a2.1 2.1 0 0 0-2.098 2.102v4.669a2.1 2.1 0 0 0 2.098 2.102h66.691a2.1 2.1 0 0 0 2.099-2.102v-4.67a2.1 2.1 0 0 0-2.099-2.101zm0-10.288h-66.691a2.1 2.1 0 0 0-2.098 2.102v4.669a2.1 2.1 0 0 0 2.098 2.101h66.691a2.1 2.1 0 0 0 2.099-2.101v-4.67a2.1 2.1 0 0 0-2.099-2.101z"/>
        </g>
        <path fill="#B3B3B3" fill-rule="nonzero" d="M608.785 214.83a1.676 1.676 0 0 1-1.076 0h-3.573l-.06.016c-.285.067-.57.057-.834-.016H581.43c-.343 0-.674.405-.655.914l1.1 14.532a.838.838 0 0 1 .302-.056h14.991a.84.84 0 0 1 0 1.68h-14.99a.843.843 0 0 1-.181-.02l.665 8.782a.839.839 0 0 1 .279-.048h23.891a.84.84 0 0 1 0 1.68H582.94a.845.845 0 0 1-.157-.014l.68 8.97a.837.837 0 0 1 .587-.241h7.964a.84.84 0 0 1 0 1.68h-7.964a.836.836 0 0 1-.49-.158l2.829 37.37c.018.503.333.856.653.856h22.09c.32 0 .636-.353.656-.886l5.612-74.097c.02-.54-.311-.944-.654-.944h-5.96zm-22.99-1.559a1.678 1.678 0 0 1-.1-.54l-1.629-75.205-18.46-78.066a1.68 1.68 0 1 1 3.27-.773l14.842 62.767-2.193-101.324a1.68 1.68 0 0 1 3.359-.073l2.534 117.041 7.293 30.844L609.57 15.598a1.68 1.68 0 0 1 3.344.326L597.101 178.05l8.223 34.775c.036.15.05.3.045.447h1.199c-.001-.039 0-.078.002-.118l8.546-167.615a1.68 1.68 0 1 1 3.355.171l-8.543 167.562h4.818c1.29 0 2.262 1.19 2.21 2.59l-5.611 74.097c-.048 1.294-.998 2.359-2.213 2.359h-22.09c-1.215 0-2.163-1.065-2.21-2.329l-5.614-74.155c-.053-1.37.922-2.562 2.211-2.562h4.366zm3.157 0h1.41a1.68 1.68 0 0 1-.024-.491l3.365-34.501-5.937-25.108 1.288 59.487c.004.216-.032.423-.102.613zm4.706 0h8.32l-5.885-24.884-2.41 24.719a1.7 1.7 0 0 1-.025.165z" opacity=".404"/>
        <g fill-rule="nonzero">
            <path fill="#000" d="M414.791 80.425h-197.31v204.437h197.31V80.425zm0-3V58.053a3.6 3.6 0 0 0-3.596-3.604H221.078a3.6 3.6 0 0 0-3.597 3.604v19.372h197.31zm-201.31 207.437V58.052c0-4.198 3.4-7.603 7.597-7.603h190.117c4.195 0 7.596 3.405 7.596 7.604v226.809h1.937a2.07 2.07 0 0 1 2.07 2.072v.059a2.07 2.07 0 0 1-2.07 2.072H211.545a2.07 2.07 0 0 1-2.07-2.072v-.06a2.07 2.07 0 0 1 2.07-2.071h1.936z"/>
            <path fill="#000" d="M352.453 89.167c.614-1.392 1.758-2.97 2.885-4.212 1.697-1.866 2.39-3.191 2.39-4.582a3.763 3.763 0 0 0-3.758-3.766 3.763 3.763 0 0 0-3.76 3.766 2 2 0 1 1-4 0c0-4.288 3.473-7.766 7.76-7.766 4.285 0 7.759 3.478 7.759 7.766 0 2.585-1.129 4.74-3.43 7.272-.969 1.067-2.069 2.644-2.307 3.454-.165.559-.551.99-1.035 1.23a2 2 0 0 1-.498.32l-2.396 1.086a689859.136 689859.136 0 0 1-35.938 16.29l-.12.05c-1.769.669-2.433 1.445-2.433 2.483 0 .8.347 1.115 1.81 1.24h76.494l.116.003c2.41.14 3.02-.244 3.02-1.243 0-.965-1.127-2.065-3.872-3.152l-.093-.04-31.94-14.557a2 2 0 1 1 1.659-3.64l31.895 14.537c4.07 1.623 6.35 3.86 6.35 6.852 0 3.702-2.788 5.478-7.19 5.24h-76.522l-.158-.006c-3.444-.274-5.57-2.121-5.57-5.234 0-2.87 1.798-4.988 4.959-6.2a1403269.118 1403269.118 0 0 0 37.923-17.191zM292.594 206.877a2 2 0 0 1-.59-.06l-2.55-.644-7.649-1.936-30.596-7.74-.123-.036c-1.802-.58-2.803-.389-3.447.42-.498.628-.423 1.093.645 2.105l52.047 41.507.01.008 7.778 6.202.09.076c1.796 1.613 2.51 1.692 3.13.914.601-.757.404-2.32-1.068-4.884l-.048-.09-15.925-31.312a2 2 0 1 1 3.565-1.813l15.903 31.269c2.174 3.806 2.565 6.976.704 9.32-2.307 2.897-5.594 2.546-8.889-.387l-10.017-7.988a2.04 2.04 0 0 1-.02-.017l-49.818-39.729-.12-.103c-2.522-2.361-3.035-5.13-1.098-7.567 1.787-2.246 4.511-2.781 7.741-1.759l30.537 7.727 7.65 1.935 2.171.55c1.35-.708 3.235-1.231 4.878-1.494 2.488-.403 3.854-1.006 4.719-2.092a3.77 3.77 0 0 0-.6-5.295 3.753 3.753 0 0 0-5.28.6 2 2 0 1 1-3.13-2.49 7.753 7.753 0 0 1 10.904-1.237 7.77 7.77 0 0 1 1.236 10.912c-1.61 2.022-3.834 3.004-7.213 3.55-1.41.226-3.258.776-3.95 1.261a1.995 1.995 0 0 1-1.577.317z"/>
            <path fill="#979797" d="M271.118 190.933a.5.5 0 0 1-.866.5 47.183 47.183 0 0 1-2.288-4.506.5.5 0 1 1 .914-.404 46.184 46.184 0 0 0 2.24 4.41zm-4.001-9.05a.5.5 0 0 1-.953.305 48.301 48.301 0 0 1-1.285-4.886.5.5 0 0 1 .98-.204 47.301 47.301 0 0 0 1.258 4.785zm-2.016-9.689a.5.5 0 1 1-.995.102 49.01 49.01 0 0 1-.253-5.046.5.5 0 0 1 1 .002 48.01 48.01 0 0 0 .248 4.942zm.02-9.87a.5.5 0 1 1-.994-.109c.188-1.728.47-3.4.838-4.99a.5.5 0 0 1 .974.226 41.658 41.658 0 0 0-.818 4.872zm2.284-9.62a.5.5 0 0 1-.928-.372c.717-1.792 1.548-3.323 2.446-4.512a.5.5 0 1 1 .798.603c-.84 1.113-1.63 2.567-2.316 4.28zm5.788-7.582a.5.5 0 1 1-.578-.816 14.158 14.158 0 0 1 4.702-2.178.5.5 0 1 1 .247.969 13.158 13.158 0 0 0-4.37 2.025zm9.246-2.398a.5.5 0 0 1 .087-.996c1.684.147 3.376.547 5.003 1.17a.5.5 0 1 1-.357.933 17.6 17.6 0 0 0-4.733-1.107zm9.007 3.417a.5.5 0 0 1 .588-.809c1.308.952 2.423 2.03 3.268 3.161.129.173.25.34.368.506a.5.5 0 0 1-.817.578c-.113-.16-.229-.32-.353-.486-.782-1.048-1.825-2.056-3.054-2.95zm5.675 7.736a.5.5 0 1 1 .947-.32c.621 1.831.783 3.585.508 5.22a.5.5 0 0 1-.986-.166c.247-1.468.1-3.055-.469-4.734zm-1.584 8.907a.5.5 0 0 1 .743.669c-1.12 1.245-2.58 2.265-4.262 2.998a.5.5 0 1 1-.4-.917c1.556-.678 2.898-1.615 3.919-2.75zm-8.638 3.897a.5.5 0 1 1 .071.997c-1.764.127-3.52-.046-5.15-.517a.5.5 0 1 1 .278-.96c1.514.437 3.152.598 4.8.48zm-8.997-2.727a.5.5 0 1 1-.658.753c-1.305-1.138-2.328-2.57-3.02-4.27a.5.5 0 0 1 .926-.378c.633 1.556 1.564 2.859 2.752 3.895zm-3.722-8.726a.5.5 0 1 1-.998.057 29.351 29.351 0 0 1 .147-5.085.5.5 0 0 1 .993.116 28.351 28.351 0 0 0-.142 4.912zm1.141-9.725a.5.5 0 0 1-.958-.288c.48-1.597 1.1-3.173 1.86-4.729a.5.5 0 1 1 .898.439 30.254 30.254 0 0 0-1.8 4.578zm4.322-8.904a.5.5 0 1 1-.827-.562 43.5 43.5 0 0 1 3.09-4.005.5.5 0 0 1 .755.654 42.502 42.502 0 0 0-3.018 3.913zm6.408-7.464a.5.5 0 1 1-.691-.723 64.829 64.829 0 0 1 3.778-3.334.5.5 0 1 1 .633.774 63.83 63.83 0 0 0-3.72 3.283zm7.705-6.326a.5.5 0 1 1-.582-.813c.472-.338.952-.674 1.441-1.009a.5.5 0 1 1 .566.825c-.484.331-.958.664-1.425.997zm-32.765 66.585a.5.5 0 0 1-.612.79 19.855 19.855 0 0 1-3.602-3.652.5.5 0 0 1 .794-.608 18.858 18.858 0 0 0 3.42 3.47zm-5.97-7.65a.5.5 0 1 1-.9.435 32.45 32.45 0 0 1-1.833-4.735.5.5 0 1 1 .957-.29 31.453 31.453 0 0 0 1.776 4.59zm-2.899-9.425a.5.5 0 0 1-.986.166 45.28 45.28 0 0 1-.551-5.026.5.5 0 1 1 .998-.054c.09 1.658.27 3.306.54 4.914zm-.537-9.876a.5.5 0 0 1-.998-.055c.097-1.74.292-3.43.58-5.029a.5.5 0 1 1 .985.178 40.365 40.365 0 0 0-.567 4.906z"/>
        </g>
    </g>
</svg>